<?xml version="1.0" encoding="UTF-8"?>
<svg xmlns="http://www.w3.org/2000/svg" id="Layer_2" data-name="Layer 2" viewBox="0 0 1337.96 369.14">
  <defs>
    <style>.cls-1{fill:#ce181e;}.cls-2{fill:#58595b;}</style>
  </defs>
  <title>Singular Health Trademark_4824</title>
  <path class="cls-1" d="M1173.48,366.24a77.89,77.89,0,0,0,44.93-41.72,163.35,163.35,0,0,0,13.07-41l23.72-124a3.28,3.28,0,0,1,6.42,0l23.73,124a163.12,163.12,0,0,0,13.08,41,77.87,77.87,0,0,0,44.92,41.72l67.22,24.65a181.63,181.63,0,0,0,30.29-100.69c0-100.76-81.68-182.45-182.44-182.45S1076,189.44,1076,290.2A181.61,181.61,0,0,0,1106.31,391Z" transform="translate(-102.9 -103.5)"></path>
  <path class="cls-1" d="M1327.07,407.27c-29.08-13.35-45.75-34.51-51.14-63.87,0,0-.89-2.85-5-35.11l-11.06-84.19a1.43,1.43,0,0,0-2.83,0l-11,84.19c-4.16,32.26-5,35.11-5,35.11-5.4,29.36-22.07,50.52-51.14,63.87L1141.19,430a182.41,182.41,0,0,0,234.55-.09Z" transform="translate(-102.9 -103.5)"></path>
  <path class="cls-2" d="M144.08,270.37a23.72,23.72,0,0,0,7,7.69,29.78,29.78,0,0,0,9.83,4.42,46.24,46.24,0,0,0,11.54,1.42,43.66,43.66,0,0,0,9-1,30.66,30.66,0,0,0,8.55-3.14,19.37,19.37,0,0,0,6.41-5.7,15,15,0,0,0,2.57-9q0-9.1-12.12-13.68t-33.77-9.12q-8.84-2-17.24-4.7a58.65,58.65,0,0,1-15-7.12,34.57,34.57,0,0,1-10.55-11.12q-4-6.69-4-16.39,0-14.24,5.56-23.37a41,41,0,0,1,14.68-14.39,64.41,64.41,0,0,1,20.52-7.41,126.9,126.9,0,0,1,23.37-2.14,117.44,117.44,0,0,1,23.22,2.28,61.75,61.75,0,0,1,20.1,7.7A46.2,46.2,0,0,1,228.44,180q5.85,9,7,22.66H197q-.85-11.69-8.83-15.82a40.51,40.51,0,0,0-18.81-4.13,68.45,68.45,0,0,0-7.41.43,24.48,24.48,0,0,0-7.27,1.85,15,15,0,0,0-5.56,4.13,10.93,10.93,0,0,0-2.28,7.27,11.09,11.09,0,0,0,4,8.83,30.71,30.71,0,0,0,10.4,5.56,129.29,129.29,0,0,0,14.68,3.85q8.26,1.71,16.82,3.7a174.75,174.75,0,0,1,17.24,4.85,56.93,56.93,0,0,1,15,7.55,36.67,36.67,0,0,1,10.55,11.69q4,7,4,17.24,0,14.54-5.85,24.37a46.71,46.71,0,0,1-15.24,15.81,62.46,62.46,0,0,1-21.52,8.41,125.86,125.86,0,0,1-24.65,2.42,122,122,0,0,1-25.08-2.56,66.2,66.2,0,0,1-21.81-8.55,48.75,48.75,0,0,1-15.67-15.82q-6.13-9.83-6.7-24.65h38.48A22.27,22.27,0,0,0,144.08,270.37Z" transform="translate(-102.9 -103.5)"></path>
  <path class="cls-2" d="M290.14,159.64V307H249.67V159.64Z" transform="translate(-102.9 -103.5)"></path>
  <path class="cls-2" d="M346,159.64v20.52h.86q7.69-12.82,19.95-18.66a57.6,57.6,0,0,1,25.08-5.85q16.25,0,26.64,4.42a39.49,39.49,0,0,1,16.39,12.26,47.48,47.48,0,0,1,8.41,19.09,119.16,119.16,0,0,1,2.42,24.94V307H405.28V223.77q0-18.24-5.7-27.22t-20.23-9q-16.55,0-23.94,9.84T348,229.75V307H307.53V159.64Z" transform="translate(-102.9 -103.5)"></path>
  <path class="cls-2" d="M597.81,317.82a49.79,49.79,0,0,1-10.4,21.23q-8,9.84-23.08,16.67t-40.47,6.84a94.43,94.43,0,0,1-22.09-2.7,70.19,70.19,0,0,1-20.52-8.41,50.26,50.26,0,0,1-15.39-14.68q-6.14-9-7-21.52h40.18q2.85,11.4,11.12,15.82a39.79,39.79,0,0,0,19.09,4.42q17.1,0,24.94-10.26t7.55-25.94V279.91h-.57a40,40,0,0,1-18.67,17.25,60.51,60.51,0,0,1-25.5,5.55q-16.54,0-28.5-5.84a54,54,0,0,1-19.67-16,66.65,66.65,0,0,1-11.26-23.65A112.39,112.39,0,0,1,454,228.61a92.06,92.06,0,0,1,4.13-27.5,71.91,71.91,0,0,1,12.12-23.37,58.51,58.51,0,0,1,19.8-16.1q11.84-6,27.22-6,14.54,0,25.51,5.42t18.38,18.24h.57V159.64h38.48V297.58A98.33,98.33,0,0,1,597.81,317.82Zm-55.43-49a31.6,31.6,0,0,0,10.83-9.12,40.25,40.25,0,0,0,6.41-13,53.53,53.53,0,0,0,2.14-15.25,83.65,83.65,0,0,0-1.71-17.24,43.11,43.11,0,0,0-5.7-14.39,29.67,29.67,0,0,0-10.54-10q-6.57-3.69-16.53-3.7a29.67,29.67,0,0,0-14.68,3.42,30.81,30.81,0,0,0-10.26,9.26,39.09,39.09,0,0,0-6,13.4A66.4,66.4,0,0,0,494.5,228a80,80,0,0,0,1.57,15.82A42.72,42.72,0,0,0,501.48,258a31.69,31.69,0,0,0,10.12,10.26q6.27,4,15.68,4A32.17,32.17,0,0,0,542.38,268.8Z" transform="translate(-102.9 -103.5)"></path>
  <path class="cls-2" d="M714.25,307V286.47h-.85q-7.7,12.82-19.95,18.52a58.88,58.88,0,0,1-25.08,5.7q-16.25,0-26.65-4.27a38.39,38.39,0,0,1-16.39-12.11,47.37,47.37,0,0,1-8.4-19.1,118.39,118.39,0,0,1-2.43-24.94V159.64H655v83.22q0,18.25,5.7,27.22t20.24,9q16.53,0,23.94-9.83t7.41-32.35V159.64h40.47V307Z" transform="translate(-102.9 -103.5)"></path>
  <path class="cls-2" d="M810.58,103.5V307H770.11V103.5Z" transform="translate(-102.9 -103.5)"></path>
  <path class="cls-2" d="M823.42,205q.86-14.25,7.12-23.66a48.5,48.5,0,0,1,16-15.1,69.42,69.42,0,0,1,21.81-8.12,123.47,123.47,0,0,1,24.36-2.43,166,166,0,0,1,22.52,1.57,69,69,0,0,1,20.8,6.13A41,41,0,0,1,951.38,176q6,8.13,6,21.52v76.66a153.93,153.93,0,0,0,1.14,19.1q1.14,9.12,4,13.68h-41a57.35,57.35,0,0,1-1.85-7,60,60,0,0,1-1-7.27,52.63,52.63,0,0,1-22.8,14,91.51,91.51,0,0,1-26.79,4,72.42,72.42,0,0,1-19.67-2.56,45,45,0,0,1-16-8,37.08,37.08,0,0,1-10.68-13.68q-3.86-8.27-3.85-19.67,0-12.53,4.42-20.66a37,37,0,0,1,11.4-13,51.07,51.07,0,0,1,16-7.26,168.77,168.77,0,0,1,18.09-3.85q9.12-1.42,18-2.28a107.86,107.86,0,0,0,15.67-2.57,27.39,27.39,0,0,0,10.83-5q4-3.28,3.71-9.55,0-6.56-2.14-10.4a15.73,15.73,0,0,0-5.7-6,22.64,22.64,0,0,0-8.26-2.85,68.4,68.4,0,0,0-10.12-.71q-12,0-18.81,5.13t-8,17.1Zm93.48,29.92a18.12,18.12,0,0,1-6.41,3.57,66.91,66.91,0,0,1-8.27,2.13c-3,.57-6,1-9.26,1.43s-6.46.85-9.69,1.42a75.22,75.22,0,0,0-9,2.28,26.77,26.77,0,0,0-7.69,3.85,18.31,18.31,0,0,0-5.28,6.13,19.72,19.72,0,0,0-2,9.4,19,19,0,0,0,2,9.12,15.29,15.29,0,0,0,5.42,5.85,23,23,0,0,0,8,3,50.88,50.88,0,0,0,9.4.85q12,0,18.53-4a26.63,26.63,0,0,0,9.69-9.54,30.67,30.67,0,0,0,3.85-11.26,78.34,78.34,0,0,0,.71-9.12Z" transform="translate(-102.9 -103.5)"></path>
  <path class="cls-2" d="M1008.4,159.64V187h.57a49.86,49.86,0,0,1,7.7-12.68,50.37,50.37,0,0,1,11.11-10,54.54,54.54,0,0,1,13.4-6.42,48.63,48.63,0,0,1,14.82-2.28,31.55,31.55,0,0,1,8.83,1.43V194.7q-2.85-.57-6.84-1a73.54,73.54,0,0,0-7.69-.43q-11.11,0-18.81,3.71a32.58,32.58,0,0,0-12.4,10.12,40.6,40.6,0,0,0-6.7,15,81.47,81.47,0,0,0-2,18.52V307H969.93V159.64Z" transform="translate(-102.9 -103.5)"></path>
  <path class="cls-1" d="M637.28,330.1v40h.47a25.64,25.64,0,0,1,10.76-10.22,29.06,29.06,0,0,1,12.79-3.19q8.9,0,14.59,2.41a21.77,21.77,0,0,1,9,6.71,26.14,26.14,0,0,1,4.6,10.45,65.29,65.29,0,0,1,1.33,13.65V439.5H668.63V394q0-10-3.12-14.9t-11.07-4.91q-9.06,0-13.11,5.38t-4.05,17.7V439.5H615.13V330.1Z" transform="translate(-102.9 -103.5)"></path>
  <path class="cls-1" d="M724.8,420.16q5,4.83,14.36,4.83a19.7,19.7,0,0,0,11.54-3.35q4.83-3.36,5.93-7.1h19.5q-4.68,14.5-14.35,20.75t-23.4,6.24a46.18,46.18,0,0,1-17.16-3,35.68,35.68,0,0,1-13-8.66,38.92,38.92,0,0,1-8.19-13.42,49,49,0,0,1-2.89-17.16,47,47,0,0,1,3-16.85,39,39,0,0,1,21.45-22.46,41.81,41.81,0,0,1,16.77-3.27,38.4,38.4,0,0,1,17.94,4,35.79,35.79,0,0,1,12.55,10.69,43.91,43.91,0,0,1,7.1,15.29,56.7,56.7,0,0,1,1.56,17.94H719.34Q719.82,415.32,724.8,420.16Zm25-42.44q-4-4.37-12.09-4.36a19.35,19.35,0,0,0-8.81,1.79,16.89,16.89,0,0,0-5.62,4.45,16.35,16.35,0,0,0-3,5.61,26.11,26.11,0,0,0-1,5.31h36Q753.82,382.09,749.84,377.72Z" transform="translate(-102.9 -103.5)"></path>
  <path class="cls-1" d="M781.74,383.65a25.66,25.66,0,0,1,3.9-12.94,26.48,26.48,0,0,1,8.74-8.27A38.14,38.14,0,0,1,806.31,358a68.18,68.18,0,0,1,13.34-1.32,90.85,90.85,0,0,1,12.33.85,37.78,37.78,0,0,1,11.38,3.36,22.42,22.42,0,0,1,8.43,6.94q3.27,4.44,3.27,11.78v42a83.36,83.36,0,0,0,.63,10.45,18.78,18.78,0,0,0,2.18,7.49H835.41a31.14,31.14,0,0,1-1-3.82,32.57,32.57,0,0,1-.54-4,28.85,28.85,0,0,1-12.48,7.64,50,50,0,0,1-14.67,2.19,39.83,39.83,0,0,1-10.76-1.4,24.86,24.86,0,0,1-8.74-4.37,20.47,20.47,0,0,1-5.85-7.49,25.39,25.39,0,0,1-2.1-10.77,23.46,23.46,0,0,1,2.42-11.31,20.28,20.28,0,0,1,6.23-7.09,27.83,27.83,0,0,1,8.74-4,94.46,94.46,0,0,1,9.91-2.11c3.32-.52,6.6-.93,9.83-1.25a59.6,59.6,0,0,0,8.58-1.4,14.81,14.81,0,0,0,5.92-2.73,6,6,0,0,0,2-5.23,11.73,11.73,0,0,0-1.17-5.69,8.64,8.64,0,0,0-3.12-3.28,12.28,12.28,0,0,0-4.52-1.55,37.1,37.1,0,0,0-5.54-.4q-6.55,0-10.3,2.81t-4.36,9.36ZM832.91,400a9.83,9.83,0,0,1-3.51,2,35,35,0,0,1-4.52,1.17c-1.62.31-3.31.58-5.07.78s-3.54.47-5.31.78a39.68,39.68,0,0,0-4.91,1.25,14.33,14.33,0,0,0-4.21,2.11,10,10,0,0,0-2.89,3.35,10.77,10.77,0,0,0-1.09,5.15,10.37,10.37,0,0,0,1.09,5,8.41,8.41,0,0,0,3,3.2,12.6,12.6,0,0,0,4.36,1.64,28.11,28.11,0,0,0,5.15.46q6.56,0,10.14-2.18a14.69,14.69,0,0,0,5.31-5.22,16.82,16.82,0,0,0,2.1-6.17,42.27,42.27,0,0,0,.39-5Z" transform="translate(-102.9 -103.5)"></path>
  <path class="cls-1" d="M885.62,329.82V439.5H863.47V329.82Z" transform="translate(-102.9 -103.5)"></path>
  <path class="cls-1" d="M938.31,358.85v14.82H925.49V413.6c0,3.75.62,6.24,1.87,7.49s1.53,1.56,4.37,1.87a17.71,17.71,0,0,0,3.59-.15,29.56,29.56,0,0,0,3.27-.47V439.5a54.29,54.29,0,0,1-6.24.63c-2.29.1-1.4.15-3.59.15a64.45,64.45,0,0,1-9.75-.7,23,23,0,0,1-8.11-2.73,14.46,14.46,0,0,1-5.54-5.77,20.67,20.67,0,0,1-2-9.83V373.67H891.62V358.85h11.72V336.37h22.15v22.48Z" transform="translate(-102.9 -103.5)"></path>
  <path class="cls-1" d="M966.51,329.82v40.26H967a25.72,25.72,0,0,1,10.77-10.22,29,29,0,0,1,12.79-3.19q8.9,0,14.58,2.41a21.64,21.64,0,0,1,9,6.71,26,26,0,0,1,4.61,10.45,65.32,65.32,0,0,1,1.32,13.65V439.5H997.87V394q0-10-3.12-14.9t-11.08-4.91q-9,0-13.1,5.38t-4.06,17.7V439.5H944.36V329.82Z" transform="translate(-102.9 -103.5)"></path>
</svg>
